<svg id="wave" style="transform:rotate(0deg); transition: 0.3s" viewBox="0 0 1440 410" version="1.1" xmlns="http://www.w3.org/2000/svg"><defs><linearGradient id="sw-gradient-0" x1="0" x2="0" y1="1" y2="0"><stop stop-color="rgba(243, 106, 62, 0.68)" offset="0%"></stop><stop stop-color="rgba(255, 179, 11, 0.36)" offset="100%"></stop></linearGradient></defs><path style="transform:translate(0, 0px); opacity:1" fill="url(#sw-gradient-0)" d="M0,123L130.9,164L261.8,123L392.7,41L523.6,41L654.5,328L785.5,164L916.4,82L1047.3,41L1178.2,246L1309.1,82L1440,41L1570.9,82L1701.8,328L1832.7,82L1963.6,328L2094.5,123L2225.5,82L2356.4,205L2487.3,369L2618.2,369L2749.1,82L2880,287L3010.9,246L3141.8,205L3141.8,410L3010.9,410L2880,410L2749.1,410L2618.2,410L2487.3,410L2356.4,410L2225.5,410L2094.5,410L1963.6,410L1832.7,410L1701.8,410L1570.9,410L1440,410L1309.1,410L1178.2,410L1047.3,410L916.4,410L785.5,410L654.5,410L523.6,410L392.7,410L261.8,410L130.9,410L0,410Z"></path><defs><linearGradient id="sw-gradient-1" x1="0" x2="0" y1="1" y2="0"><stop stop-color="rgba(243, 106, 62, 0.67)" offset="0%"></stop><stop stop-color="rgba(255, 179, 11, 0.07)" offset="100%"></stop></linearGradient></defs><path style="transform:translate(0, 50px); opacity:0.9" fill="url(#sw-gradient-1)" d="M0,123L130.9,246L261.8,369L392.7,82L523.6,287L654.5,287L785.5,369L916.4,164L1047.3,123L1178.2,205L1309.1,41L1440,41L1570.9,328L1701.8,328L1832.7,328L1963.6,82L2094.5,287L2225.5,164L2356.4,82L2487.3,0L2618.2,328L2749.1,0L2880,82L3010.9,82L3141.8,0L3141.8,410L3010.9,410L2880,410L2749.1,410L2618.2,410L2487.3,410L2356.4,410L2225.5,410L2094.5,410L1963.6,410L1832.7,410L1701.8,410L1570.9,410L1440,410L1309.1,410L1178.2,410L1047.3,410L916.4,410L785.5,410L654.5,410L523.6,410L392.7,410L261.8,410L130.9,410L0,410Z"></path><defs><linearGradient id="sw-gradient-2" x1="0" x2="0" y1="1" y2="0"><stop stop-color="rgba(243, 106, 62, 0.72)" offset="0%"></stop><stop stop-color="rgba(255, 179, 11, 0.59)" offset="100%"></stop></linearGradient></defs><path style="transform:translate(0, 100px); opacity:0.8" fill="url(#sw-gradient-2)" d="M0,41L130.9,82L261.8,123L392.7,328L523.6,287L654.5,287L785.5,287L916.4,41L1047.3,246L1178.2,328L1309.1,82L1440,246L1570.9,164L1701.8,0L1832.7,246L1963.6,123L2094.5,369L2225.5,287L2356.4,123L2487.3,246L2618.2,82L2749.1,246L2880,41L3010.9,246L3141.8,41L3141.8,410L3010.9,410L2880,410L2749.1,410L2618.2,410L2487.3,410L2356.4,410L2225.5,410L2094.5,410L1963.6,410L1832.7,410L1701.8,410L1570.9,410L1440,410L1309.1,410L1178.2,410L1047.3,410L916.4,410L785.5,410L654.5,410L523.6,410L392.7,410L261.8,410L130.9,410L0,410Z"></path><defs><linearGradient id="sw-gradient-3" x1="0" x2="0" y1="1" y2="0"><stop stop-color="rgba(243, 106, 62, 0.42)" offset="0%"></stop><stop stop-color="rgba(255, 179, 11, 0.75)" offset="100%"></stop></linearGradient></defs><path style="transform:translate(0, 150px); opacity:0.7" fill="url(#sw-gradient-3)" d="M0,369L130.9,287L261.8,369L392.7,0L523.6,0L654.5,287L785.5,0L916.4,164L1047.3,369L1178.2,205L1309.1,164L1440,0L1570.9,328L1701.8,82L1832.7,0L1963.6,287L2094.5,0L2225.5,164L2356.4,41L2487.3,41L2618.2,287L2749.1,0L2880,123L3010.9,287L3141.8,82L3141.8,410L3010.9,410L2880,410L2749.1,410L2618.2,410L2487.3,410L2356.4,410L2225.5,410L2094.5,410L1963.6,410L1832.7,410L1701.8,410L1570.9,410L1440,410L1309.1,410L1178.2,410L1047.3,410L916.4,410L785.5,410L654.5,410L523.6,410L392.7,410L261.8,410L130.9,410L0,410Z"></path></svg>